{"extensionsUsed" : ["KHR_node_visibility"], "accessors" : [{"bufferView" : 0, "byteOffset" : 0, "componentType" : 5123, "count" : 36, "type" : "SCALAR", "max" : [23], "min" : [0]}, {"bufferView" : 1, "byteOffset" : 0, "componentType" : 5126, "count" : 24, "type" : "VEC3", "max" : [47.05218505859375, -1.283908724784851, 0.5], "min" : [-47.022552490234375, -8, -0.5], "name" : "POSITION"}, {"bufferView" : 1, "byteOffset" : 12, "componentType" : 5126, "count" : 24, "type" : "VEC3", "max" : [1.0000042915344238, 1.0000042915344238, 1.0000042915344238], "min" : [-1.0000042915344238, -1.0000042915344238, -1.0000042915344238], "name" : "NORMAL"}, {"bufferView" : 1, "byteOffset" : 24, "componentType" : 5126, "count" : 24, "type" : "VEC2", "max" : [1, 3], "min" : [0, 2], "name" : "TEXCOORD_0"}], "asset" : {"generator" : "Aspose.3D 25.3.0", "version" : "2.0"}, "buffers" : [{"uri" : "data:application/octet-stream;base64,", "byteLength" : 848}], "bufferViews" : [{"buffer" : 0, "byteOffset" : 0, "byteLength" : 72, "target" : 34963}, {"buffer" : 0, "byteOffset" : 76, "byteLength" : 768, "byteStride" : 32, "target" : 34962}], "materials" : [{"name" : "", "pbrMetallicRoughness" : {"baseColorFactor" : [1, 1, 1, 1], "metallicFactor" : 1, "roughnessFactor" : 1}, "emissiveFactor" : [0, 0, 0], "alphaMode" : "OPAQUE", "doubleSided" : true}], "meshes" : [{"primitives" : [{"attributes" : {"POSITION" : 1, "NORMAL" : 2, "TEXCOORD_0" : 3}, "indices" : 0, "material" : 0, "mode" : 4}]}], "nodes" : [{"mesh" : 0, "name" : "plint", "extensions" : {"KHR_node_visibility" : {"visible" : true}}}, {"children" : [0], "matrix" : [1, 0, 0, 0, 0, 1, 0, 0, 0, 0, 1, 0, -0.17971962690353394, 14.47195816040039, 4.440115451812744, 1], "name" : "winkel stelling ", "extensions" : {"KHR_node_visibility" : {"visible" : true}}}], "scene" : 0, "scenes" : [{"nodes" : [1]}]}