{"accessors" : [{"bufferView" : 0, "byteOffset" : 0, "componentType" : 5123, "count" : 27648, "type" : "SCALAR", "max" : [5117], "min" : [0]}, {"bufferView" : 1, "byteOffset" : 0, "componentType" : 5126, "count" : 5118, "type" : "VEC3", "max" : [50, 0.5, 18.5], "min" : [-50, -1.0028938055038452, -19.05626678466797], "name" : "POSITION"}, {"bufferView" : 1, "byteOffset" : 12, "componentType" : 5126, "count" : 5118, "type" : "VEC3", "max" : [1.0000044107437134, 1.0000044107437134, 1.0000044107437134], "min" : [-1.0000044107437134, -1.0000044107437134, -1.0000044107437134], "name" : "NORMAL"}, {"bufferView" : 1, "byteOffset" : 24, "componentType" : 5126, "count" : 5118, "type" : "VEC2", "max" : [1, 2], "min" : [0, 1], "name" : "TEXCOORD_0"}], "asset" : {"generator" : "Aspose.3D 25.2.0", "version" : "2.0"}, "buffers" : [{"uri" : "data:application/octet-stream;base64,", "byteLength" : 219080}], "bufferViews" : [{"buffer" : 0, "byteOffset" : 0, "byteLength" : 55296, "target" : 34963}, {"buffer" : 0, "byteOffset" : 55300, "byteLength" : 163776, "byteStride" : 32, "target" : 34962}], "meshes" : [{"primitives" : [{"attributes" : {"POSITION" : 1, "NORMAL" : 2, "TEXCOORD_0" : 3}, "indices" : 0, "mode" : 4}]}], "nodes" : [{"matrix" : [1, 0, 0, 0, 0, 1, 0, 0, 0, 0, 1, 0, 0, 1.0028938055038452, 0, 1], "mesh" : 0, "name" : "legboard 37x100 cm"}], "scene" : 0, "scenes" : [{"nodes" : [0]}]}