{
  "asset": {
    "version": "2.0",
    "generator": "THREE.GLTFExporter r174"
  },
  "scenes": [
    {
      "name": "Scene",
      "nodes": [
        3
      ]
    }
  ],
  "scene": 0,
  "nodes": [
    {
      "matrix": [
        1,
        0,
        0,
        0,
        0,
        1,
        0,
        0,
        0,
        0,
        1,
        0,
        0,
        105,
        0,
        1
      ],
      "name": "Subdivision_Surface-Cloner",
      "extras": {
        "name": "Subdivision Surface-Cloner"
      },
      "mesh": 0
    },
    {
      "name": "staander_60*30mm",
      "extras": {
        "name": "staander 60*30mm"
      },
      "children": [
        0
      ]
    },
    {
      "name": "staander_60*30mm_H2010",
      "extras": {
        "name": "staander 60*30mm H2010"
      },
      "children": [
        1
      ]
    },
    {
      "name": "STAANDER.gltf",
      "children": [
        2
      ]
    }
  ],
  "bufferViews": [
    {
      "buffer": 0,
      "byteOffset": 0,
      "byteLength": 39816,
      "target": 34962,
      "byteStride": 12
    },
    {
      "buffer": 0,
      "byteOffset": 39816,
      "byteLength": 39816,
      "target": 34962,
      "byteStride": 12
    },
    {
      "buffer": 0,
      "byteOffset": 79632,
      "byteLength": 26544,
      "target": 34962,
      "byteStride": 8
    },
    {
      "buffer": 0,
      "byteOffset": 106176,
      "byteLength": 21720,
      "target": 34963
    }
  ],
  "buffers": [
    {
      "byteLength": 127896,
      "uri": "data:application/octet-stream;base64,"
    }
  ],
  "accessors": [
    {
      "bufferView": 0,
      "componentType": 5126,
      "count": 3318,
      "max": [
        1.4965319633483887,
        104.99649047851562,
        3
      ],
      "min": [
        -1.4965319633483887,
        -104.99649047851562,
        -3
      ],
      "type": "VEC3"
    },
    {
      "bufferView": 1,
      "componentType": 5126,
      "count": 3318,
      "max": [
        1,
        1,
        1
      ],
      "min": [
        -1,
        -1,
        -1
      ],
      "type": "VEC3"
    },
    {
      "bufferView": 2,
      "componentType": 5126,
      "count": 3318,
      "max": [
        1,
        1
      ],
      "min": [
        -1.7003921718334062e-18,
        0
      ],
      "type": "VEC2"
    },
    {
      "bufferView": 3,
      "componentType": 5123,
      "count": 10860,
      "max": [
        3317
      ],
      "min": [
        0
      ],
      "type": "SCALAR"
    }
  ],
  "materials": [
    {
      "pbrMetallicRoughness": {
        "metallicFactor": 1,
        "roughnessFactor": 1
      }
    }
  ],
  "meshes": [
    {
      "primitives": [
        {
          "mode": 4,
          "attributes": {
            "POSITION": 0,
            "NORMAL": 1,
            "TEXCOORD_0": 2
          },
          "indices": 3,
          "material": 0
        }
      ]
    }
  ]
}