{
	"asset":{
		"version":"2.0",
		"generator":"Created using the official Cinema 4D glTF Exporter 1.000x284978"
	},
	"scenes":[{
		"nodes":[0]
	}],
	"nodes":[{
		"name":"voet",
		"translation":[-0.2772523760795593,
		3.090426445007324,
		0.042190972715616229],
		"rotation":[0.0,
		0.0,
		0.0,
		-1.0],
		"scale":[1.0,
		1.0,
		1.0],
		"children":[1,
		4,
		8,
		12]
	},
	{
		"name":"ust metal",
		"translation":[-0.831757128238678,
		4.616469383239746,
		-0.042190972715616229],
		"rotation":[0.0,
		0.0,
		0.0,
		-1.0],
		"scale":[1.0,
		1.0,
		1.0],
		"children":[2,
		3]
	},
	{
		"name":"Polygon.1",
		"translation":[1.1796387434005738,
		-9.379919063690068e-10,
		-0.7883636951446533],
		"rotation":[0.0,
		0.0,
		0.0,
		-1.0],
		"scale":[1.0,
		1.0,
		1.0],
		"mesh":0
	},
	{
		"name":"Polygon",
		"translation":[1.0412778854370118,
		-9.379919063690068e-10,
		-0.7883636951446533],
		"rotation":[0.0,
		0.0,
		0.0,
		-1.0],
		"scale":[1.0,
		1.0,
		1.0],
		"mesh":1
	},
	{
		"name":"foot",
		"translation":[0.2772523760795593,
		-2.8843069076538088,
		20.118282318115236],
		"rotation":[0.0,
		0.0,
		0.0,
		-1.0],
		"scale":[1.0,
		1.0,
		1.0],
		"children":[5,
		6,
		7]
	},
	{
		"name":"Disc.1",
		"translation":[0.0,
		-0.20611943304538728,
		0.00006064613990020007],
		"rotation":[0.0,
		0.0,
		0.0,
		-1.0],
		"scale":[1.0,
		1.0,
		1.0],
		"mesh":2
	},
	{
		"name":"Disc.2",
		"translation":[0.0,
		-0.08776114881038666,
		0.00006064613990020007],
		"rotation":[0.0,
		0.0,
		0.0,
		-1.0],
		"scale":[1.0,
		1.0,
		1.0],
		"mesh":3
	},
	{
		"name":"Tube.2",
		"translation":[0.0,
		0.2938805818557739,
		-0.00012129227980040014],
		"rotation":[0.0,
		0.0,
		0.0,
		-1.0],
		"scale":[1.0,
		1.0,
		1.0],
		"mesh":4
	},
	{
		"name":"foot.1",
		"translation":[0.2772523760795593,
		-2.8843069076538088,
		-20.03390121459961],
		"rotation":[0.0,
		0.0,
		0.0,
		-1.0],
		"scale":[1.0,
		1.0,
		1.0],
		"children":[9,
		10,
		11]
	},
	{
		"name":"Disc.1",
		"translation":[0.0,
		-0.20611943304538728,
		0.00006064613990020007],
		"rotation":[0.0,
		0.0,
		0.0,
		-1.0],
		"scale":[1.0,
		1.0,
		1.0],
		"mesh":5
	},
	{
		"name":"Disc.2",
		"translation":[0.0,
		-0.08776114881038666,
		0.00006064613990020007],
		"rotation":[0.0,
		0.0,
		0.0,
		-1.0],
		"scale":[1.0,
		1.0,
		1.0],
		"mesh":6
	},
	{
		"name":"Tube.2",
		"translation":[0.0,
		0.2938805818557739,
		-0.00012129227980040014],
		"rotation":[0.0,
		0.0,
		0.0,
		-1.0],
		"scale":[1.0,
		1.0,
		1.0],
		"mesh":7
	},
	{
		"name":"govde",
		"translation":[0.2772523760795593,
		0.9095736742019653,
		-0.042190972715616229],
		"rotation":[0.0,
		0.0,
		0.0,
		-1.0],
		"scale":[1.0,
		1.0,
		1.0],
		"mesh":8
	}],
	"meshes":[{
		"name":"Polygon.1",
		"primitives":[{
			"attributes":{
				"POSITION":1,
				"NORMAL":2,
				"TEXCOORD_0":3
			},
			"indices":0,
			"material":0
		}]
	},
	{
		"name":"Polygon",
		"primitives":[{
			"attributes":{
				"POSITION":5,
				"NORMAL":6,
				"TEXCOORD_0":7
			},
			"indices":4,
			"material":1
		}]
	},
	{
		"name":"Disc.1",
		"primitives":[{
			"attributes":{
				"POSITION":9,
				"NORMAL":10,
				"TEXCOORD_0":11
			},
			"indices":8,
			"material":2
		}]
	},
	{
		"name":"Disc.2",
		"primitives":[{
			"attributes":{
				"POSITION":13,
				"NORMAL":14,
				"TEXCOORD_0":15
			},
			"indices":12,
			"material":3
		}]
	},
	{
		"name":"Tube.2",
		"primitives":[{
			"attributes":{
				"POSITION":17,
				"NORMAL":18,
				"TEXCOORD_0":19
			},
			"indices":16,
			"material":4
		}]
	},
	{
		"name":"Disc.1",
		"primitives":[{
			"attributes":{
				"POSITION":21,
				"NORMAL":22,
				"TEXCOORD_0":23
			},
			"indices":20,
			"material":5
		}]
	},
	{
		"name":"Disc.2",
		"primitives":[{
			"attributes":{
				"POSITION":25,
				"NORMAL":26,
				"TEXCOORD_0":27
			},
			"indices":24,
			"material":6
		}]
	},
	{
		"name":"Tube.2",
		"primitives":[{
			"attributes":{
				"POSITION":29,
				"NORMAL":30,
				"TEXCOORD_0":31
			},
			"indices":28,
			"material":7
		}]
	},
	{
		"name":"govde",
		"primitives":[{
			"attributes":{
				"POSITION":33,
				"NORMAL":34,
				"TEXCOORD_0":35
			},
			"indices":32,
			"material":8
		}]
	}],
	"accessors":[{
		"bufferView":0,
		"byteOffset":0,
		"count":74880,
		"type":"SCALAR",
		"componentType":5123,
		"min":[0],
		"max":[12538]
	},
	{
		"bufferView":1,
		"byteOffset":0,
		"count":12539,
		"type":"VEC3",
		"componentType":5126,
		"min":[-0.05000004917383194,
		-0.816213846206665,
		-24.23417854309082],
		"max":[0.050000034272670749,
		0.816213846206665,
		24.28836441040039]
	},
	{
		"bufferView":1,
		"byteOffset":12,
		"count":12539,
		"type":"VEC3",
		"componentType":5126,
		"min":[-1.0,
		-1.0,
		-1.0],
		"max":[1.0,
		1.0,
		1.0]
	},
	{
		"bufferView":1,
		"byteOffset":24,
		"count":12539,
		"type":"VEC2",
		"componentType":5126,
		"min":[0.0,
		0.0],
		"max":[1.0,
		1.0]
	},
	{
		"bufferView":2,
		"byteOffset":0,
		"count":74880,
		"type":"SCALAR",
		"componentType":5123,
		"min":[0],
		"max":[12538]
	},
	{
		"bufferView":3,
		"byteOffset":0,
		"count":12539,
		"type":"VEC3",
		"componentType":5126,
		"min":[-0.05000004917383194,
		-0.816213846206665,
		-24.23417854309082],
		"max":[0.050000034272670749,
		0.816213846206665,
		24.28836441040039]
	},
	{
		"bufferView":3,
		"byteOffset":12,
		"count":12539,
		"type":"VEC3",
		"componentType":5126,
		"min":[-1.0,
		-1.0,
		-1.0],
		"max":[1.0,
		1.0,
		1.0]
	},
	{
		"bufferView":3,
		"byteOffset":24,
		"count":12539,
		"type":"VEC2",
		"componentType":5126,
		"min":[0.0,
		0.0],
		"max":[1.0,
		1.0]
	},
	{
		"bufferView":4,
		"byteOffset":0,
		"count":192,
		"type":"SCALAR",
		"componentType":5123,
		"min":[0],
		"max":[65]
	},
	{
		"bufferView":5,
		"byteOffset":0,
		"count":66,
		"type":"VEC3",
		"componentType":5126,
		"min":[-0.75,
		0.0,
		-0.6000000238418579],
		"max":[0.75,
		0.10000000149011612,
		0.6000000238418579]
	},
	{
		"bufferView":5,
		"byteOffset":12,
		"count":66,
		"type":"VEC3",
		"componentType":5126,
		"min":[-0.996583104133606,
		-1.0,
		-0.9985961318016052],
		"max":[0.996583104133606,
		1.0,
		0.9985961318016052]
	},
	{
		"bufferView":5,
		"byteOffset":24,
		"count":66,
		"type":"VEC2",
		"componentType":5126,
		"min":[0.0,
		0.0],
		"max":[1.0,
		1.0]
	},
	{
		"bufferView":6,
		"byteOffset":0,
		"count":192,
		"type":"SCALAR",
		"componentType":5123,
		"min":[0],
		"max":[65]
	},
	{
		"bufferView":7,
		"byteOffset":0,
		"count":66,
		"type":"VEC3",
		"componentType":5126,
		"min":[-0.4000000059604645,
		0.0,
		-0.4000000059604645],
		"max":[0.4000000059604645,
		0.10000000149011612,
		0.4000000059604645]
	},
	{
		"bufferView":7,
		"byteOffset":12,
		"count":66,
		"type":"VEC3",
		"componentType":5126,
		"min":[-0.9978091716766357,
		-1.0,
		-0.9978091716766357],
		"max":[0.9978091716766357,
		1.0,
		0.9978091716766357]
	},
	{
		"bufferView":7,
		"byteOffset":24,
		"count":66,
		"type":"VEC2",
		"componentType":5126,
		"min":[0.0,
		0.0],
		"max":[1.0,
		1.0]
	},
	{
		"bufferView":8,
		"byteOffset":0,
		"count":960,
		"type":"SCALAR",
		"componentType":5123,
		"min":[0],
		"max":[237]
	},
	{
		"bufferView":9,
		"byteOffset":0,
		"count":238,
		"type":"VEC3",
		"componentType":5126,
		"min":[-0.30000001192092898,
		-0.5,
		-0.30000001192092898],
		"max":[0.30000001192092898,
		0.5,
		0.30000001192092898]
	},
	{
		"bufferView":9,
		"byteOffset":12,
		"count":238,
		"type":"VEC3",
		"componentType":5126,
		"min":[-1.0,
		0.0,
		-1.0],
		"max":[1.0,
		0.0,
		1.0]
	},
	{
		"bufferView":9,
		"byteOffset":24,
		"count":238,
		"type":"VEC2",
		"componentType":5126,
		"min":[0.0,
		0.0],
		"max":[1.0,
		1.0]
	},
	{
		"bufferView":10,
		"byteOffset":0,
		"count":192,
		"type":"SCALAR",
		"componentType":5123,
		"min":[0],
		"max":[65]
	},
	{
		"bufferView":11,
		"byteOffset":0,
		"count":66,
		"type":"VEC3",
		"componentType":5126,
		"min":[-0.75,
		0.0,
		-0.6000000238418579],
		"max":[0.75,
		0.10000000149011612,
		0.6000000238418579]
	},
	{
		"bufferView":11,
		"byteOffset":12,
		"count":66,
		"type":"VEC3",
		"componentType":5126,
		"min":[-0.996583104133606,
		-1.0,
		-0.9985961318016052],
		"max":[0.996583104133606,
		1.0,
		0.9985961318016052]
	},
	{
		"bufferView":11,
		"byteOffset":24,
		"count":66,
		"type":"VEC2",
		"componentType":5126,
		"min":[0.0,
		0.0],
		"max":[1.0,
		1.0]
	},
	{
		"bufferView":12,
		"byteOffset":0,
		"count":192,
		"type":"SCALAR",
		"componentType":5123,
		"min":[0],
		"max":[65]
	},
	{
		"bufferView":13,
		"byteOffset":0,
		"count":66,
		"type":"VEC3",
		"componentType":5126,
		"min":[-0.4000000059604645,
		0.0,
		-0.4000000059604645],
		"max":[0.4000000059604645,
		0.10000000149011612,
		0.4000000059604645]
	},
	{
		"bufferView":13,
		"byteOffset":12,
		"count":66,
		"type":"VEC3",
		"componentType":5126,
		"min":[-0.9978091716766357,
		-1.0,
		-0.9978091716766357],
		"max":[0.9978091716766357,
		1.0,
		0.9978091716766357]
	},
	{
		"bufferView":13,
		"byteOffset":24,
		"count":66,
		"type":"VEC2",
		"componentType":5126,
		"min":[0.0,
		0.0],
		"max":[1.0,
		1.0]
	},
	{
		"bufferView":14,
		"byteOffset":0,
		"count":960,
		"type":"SCALAR",
		"componentType":5123,
		"min":[0],
		"max":[237]
	},
	{
		"bufferView":15,
		"byteOffset":0,
		"count":238,
		"type":"VEC3",
		"componentType":5126,
		"min":[-0.30000001192092898,
		-0.5,
		-0.30000001192092898],
		"max":[0.30000001192092898,
		0.5,
		0.30000001192092898]
	},
	{
		"bufferView":15,
		"byteOffset":12,
		"count":238,
		"type":"VEC3",
		"componentType":5126,
		"min":[-1.0,
		0.0,
		-1.0],
		"max":[1.0,
		0.0,
		1.0]
	},
	{
		"bufferView":15,
		"byteOffset":24,
		"count":238,
		"type":"VEC2",
		"componentType":5126,
		"min":[0.0,
		0.0],
		"max":[1.0,
		1.0]
	},
	{
		"bufferView":16,
		"byteOffset":0,
		"count":5184,
		"type":"SCALAR",
		"componentType":5123,
		"min":[0],
		"max":[1011]
	},
	{
		"bufferView":17,
		"byteOffset":0,
		"count":1012,
		"type":"VEC3",
		"componentType":5126,
		"min":[-1.5,
		-3.0,
		-23.5],
		"max":[1.5,
		3.0,
		23.5]
	},
	{
		"bufferView":17,
		"byteOffset":12,
		"count":1012,
		"type":"VEC3",
		"componentType":5126,
		"min":[-1.0,
		-1.0,
		-1.0],
		"max":[1.0,
		1.0,
		1.0]
	},
	{
		"bufferView":17,
		"byteOffset":24,
		"count":1012,
		"type":"VEC2",
		"componentType":5126,
		"min":[0.0,
		0.0],
		"max":[1.0,
		1.0]
	}],
	"bufferViews":[{
		"buffer":0,
		"byteOffset":0,
		"byteLength":149760,
		"target":34963
	},
	{
		"buffer":0,
		"byteOffset":149760,
		"byteLength":401248,
		"target":34962,
		"byteStride":32
	},
	{
		"buffer":1,
		"byteOffset":0,
		"byteLength":149760,
		"target":34963
	},
	{
		"buffer":1,
		"byteOffset":149760,
		"byteLength":401248,
		"target":34962,
		"byteStride":32
	},
	{
		"buffer":2,
		"byteOffset":0,
		"byteLength":384,
		"target":34963
	},
	{
		"buffer":2,
		"byteOffset":384,
		"byteLength":2112,
		"target":34962,
		"byteStride":32
	},
	{
		"buffer":3,
		"byteOffset":0,
		"byteLength":384,
		"target":34963
	},
	{
		"buffer":3,
		"byteOffset":384,
		"byteLength":2112,
		"target":34962,
		"byteStride":32
	},
	{
		"buffer":4,
		"byteOffset":0,
		"byteLength":1920,
		"target":34963
	},
	{
		"buffer":4,
		"byteOffset":1920,
		"byteLength":7616,
		"target":34962,
		"byteStride":32
	},
	{
		"buffer":5,
		"byteOffset":0,
		"byteLength":384,
		"target":34963
	},
	{
		"buffer":5,
		"byteOffset":384,
		"byteLength":2112,
		"target":34962,
		"byteStride":32
	},
	{
		"buffer":6,
		"byteOffset":0,
		"byteLength":384,
		"target":34963
	},
	{
		"buffer":6,
		"byteOffset":384,
		"byteLength":2112,
		"target":34962,
		"byteStride":32
	},
	{
		"buffer":7,
		"byteOffset":0,
		"byteLength":1920,
		"target":34963
	},
	{
		"buffer":7,
		"byteOffset":1920,
		"byteLength":7616,
		"target":34962,
		"byteStride":32
	},
	{
		"buffer":8,
		"byteOffset":0,
		"byteLength":10368,
		"target":34963
	},
	{
		"buffer":8,
		"byteOffset":10368,
		"byteLength":32384,
		"target":34962,
		"byteStride":32
	}],
	"buffers":[{
		"uri":"data:application/octet-stream;base64,",
		"byteLength":551008
	},
	{
		"uri":"data:application/octet-stream;base64,",
		"byteLength":551008
	},
	{
		"uri":"data:application/octet-stream;base64,",
		"byteLength":2496
	},
	{
		"uri":"data:application/octet-stream;base64,",
		"byteLength":2496
	},
	{
		"uri":"data:application/octet-stream;base64,",
		"byteLength":9536
	},
	{
		"uri":"data:application/octet-stream;base64,",
		"byteLength":2496
	},
	{
		"uri":"data:application/octet-stream;base64,",
		"byteLength":2496
	},
	{
		"uri":"data:application/octet-stream;base64,",
		"byteLength":9536
	},
	{
		"uri":"data:application/octet-stream;base64,",
		"byteLength":42752
	}],
	"materials":[{
		"name":"",
		"pbrMetallicRoughness":{
			"baseColorFactor":[1.0,
			1.0,
			1.0,
			1.0],
			"metallicFactor":1.0,
			"roughnessFactor":1.0
		},
		"emissiveFactor":[0.0,
		0.0,
		0.0],
		"alphaMode":"OPAQUE",
		"doubleSided":false
	},
	{
		"name":"",
		"pbrMetallicRoughness":{
			"baseColorFactor":[1.0,
			1.0,
			1.0,
			1.0],
			"metallicFactor":1.0,
			"roughnessFactor":1.0
		},
		"emissiveFactor":[0.0,
		0.0,
		0.0],
		"alphaMode":"OPAQUE",
		"doubleSided":false
	},
	{
		"name":"",
		"pbrMetallicRoughness":{
			"baseColorFactor":[1.0,
			1.0,
			1.0,
			1.0],
			"metallicFactor":1.0,
			"roughnessFactor":1.0
		},
		"emissiveFactor":[0.0,
		0.0,
		0.0],
		"alphaMode":"OPAQUE",
		"doubleSided":false
	},
	{
		"name":"",
		"pbrMetallicRoughness":{
			"baseColorFactor":[1.0,
			1.0,
			1.0,
			1.0],
			"metallicFactor":1.0,
			"roughnessFactor":1.0
		},
		"emissiveFactor":[0.0,
		0.0,
		0.0],
		"alphaMode":"OPAQUE",
		"doubleSided":false
	},
	{
		"name":"",
		"pbrMetallicRoughness":{
			"baseColorFactor":[1.0,
			1.0,
			1.0,
			1.0],
			"metallicFactor":1.0,
			"roughnessFactor":1.0
		},
		"emissiveFactor":[0.0,
		0.0,
		0.0],
		"alphaMode":"OPAQUE",
		"doubleSided":false
	},
	{
		"name":"",
		"pbrMetallicRoughness":{
			"baseColorFactor":[1.0,
			1.0,
			1.0,
			1.0],
			"metallicFactor":1.0,
			"roughnessFactor":1.0
		},
		"emissiveFactor":[0.0,
		0.0,
		0.0],
		"alphaMode":"OPAQUE",
		"doubleSided":false
	},
	{
		"name":"",
		"pbrMetallicRoughness":{
			"baseColorFactor":[1.0,
			1.0,
			1.0,
			1.0],
			"metallicFactor":1.0,
			"roughnessFactor":1.0
		},
		"emissiveFactor":[0.0,
		0.0,
		0.0],
		"alphaMode":"OPAQUE",
		"doubleSided":false
	},
	{
		"name":"",
		"pbrMetallicRoughness":{
			"baseColorFactor":[1.0,
			1.0,
			1.0,
			1.0],
			"metallicFactor":1.0,
			"roughnessFactor":1.0
		},
		"emissiveFactor":[0.0,
		0.0,
		0.0],
		"alphaMode":"OPAQUE",
		"doubleSided":false
	},
	{
		"name":"",
		"pbrMetallicRoughness":{
			"baseColorFactor":[1.0,
			1.0,
			1.0,
			1.0],
			"metallicFactor":1.0,
			"roughnessFactor":1.0
		},
		"emissiveFactor":[0.0,
		0.0,
		0.0],
		"alphaMode":"OPAQUE",
		"doubleSided":false
	}]
}